<svg width="2309" height="512" viewBox="0 0 2309 512" fill="none" xmlns="http://www.w3.org/2000/svg">
<rect width="512" height="512" rx="60" fill="#1D1D1D"/>
<path fill-rule="evenodd" clip-rule="evenodd" d="M45 73.4586V229.051C45 238.897 50.2957 248.014 58.8107 252.905L424.821 463.166C454 477 479.5 451 458.5 424L187.391 57.003C182.225 50.0773 174.108 46 165.487 46H72.3618C57.2503 46 45 58.2936 45 73.4586Z" fill="#FF7800"/>
<path d="M442.324 92H321.041C301.811 92 290.39 113.484 301.146 129.424L431.5 307C444.743 326.627 466.324 319.427 466.324 295.75V116C466.324 102.745 455.579 92 442.324 92Z" fill="white"/>
<path d="M129 450.037V379.023C129 366.244 142.572 358.034 153.891 363.965L287.099 441.023C302.834 449.269 299.275 467.037 281.511 467.037H146C136.611 467.037 129 459.426 129 450.037Z" fill="white"/>
<path d="M2062.45 401L2010.5 222.845V218.849H2073.11L2106.74 365.702L2094.75 365.369L2138.38 218.849H2179.67L2223.62 366.035L2211.3 366.368L2245.94 218.849H2308.21V222.845L2253.93 401H2187.99L2150.7 277.124H2164.35L2127.05 401H2062.45Z" fill="#1D1D1D"/>
<path d="M1809.51 309.425C1809.51 287.891 1813.5 270.131 1821.49 256.145C1829.49 241.937 1840.47 231.392 1854.46 224.51C1868.67 217.406 1884.99 213.854 1903.41 213.854C1921.62 213.854 1937.82 217.406 1952.03 224.51C1966.24 231.392 1977.34 241.937 1985.33 256.145C1993.32 270.131 1997.32 287.891 1997.32 309.425C1997.32 330.737 1993.32 348.497 1985.33 362.705C1977.34 376.691 1966.24 387.236 1952.03 394.34C1937.82 401.222 1921.62 404.663 1903.41 404.663C1884.99 404.663 1868.67 401.222 1854.46 394.34C1840.25 387.236 1829.15 376.691 1821.16 362.705C1813.39 348.497 1809.51 330.737 1809.51 309.425ZM1869.11 309.425C1869.11 326.741 1871.89 339.839 1877.44 348.719C1883.21 357.599 1891.87 362.039 1903.41 362.039C1914.96 362.039 1923.5 357.599 1929.05 348.719C1934.82 339.839 1937.71 326.741 1937.71 309.425C1937.71 291.887 1934.82 278.678 1929.05 269.798C1923.5 260.918 1914.96 256.478 1903.41 256.478C1891.87 256.478 1883.21 260.918 1877.44 269.798C1871.89 278.678 1869.11 291.887 1869.11 309.425Z" fill="#1D1D1D"/>
<path d="M1596.1 401V203.198C1596.1 198.758 1595.99 193.208 1595.77 186.548C1595.77 179.666 1595.44 173.006 1594.77 166.568C1594.33 159.908 1593.66 154.58 1592.77 150.584L1593.77 147.92H1654.71V243.158L1642.39 223.844C1649.05 220.958 1656.15 218.627 1663.7 216.851C1671.47 214.853 1680.68 213.854 1691.34 213.854C1703.33 213.854 1714.32 215.519 1724.31 218.849C1734.3 221.957 1742.73 226.841 1749.61 233.501C1756.72 240.161 1762.16 248.819 1765.93 259.475C1769.93 269.909 1771.93 282.452 1771.93 297.104V401H1713.32V298.436C1713.32 288.668 1711.76 281.12 1708.66 275.792C1705.55 270.242 1701.22 266.357 1695.67 264.137C1690.12 261.695 1683.57 260.474 1676.02 260.474C1672.47 260.474 1668.36 260.918 1663.7 261.806C1659.04 262.694 1654.82 263.471 1651.05 264.137C1647.49 264.803 1645.05 265.247 1643.72 265.469L1654.71 240.161V401H1596.1Z" fill="#1D1D1D"/>
<path d="M1444.96 401H1386.35V203.198C1386.35 198.758 1386.24 193.208 1386.02 186.548C1386.02 179.666 1385.68 173.006 1385.02 166.568C1384.57 159.908 1383.91 154.58 1383.02 150.584L1384.02 147.92H1444.96V401ZM1434.64 305.429L1506.9 218.849H1568.5V222.845C1566.28 224.621 1563.51 227.285 1560.18 230.837C1556.85 234.389 1553.41 238.274 1549.85 242.492C1546.52 246.488 1543.3 250.262 1540.2 253.814L1479.26 320.747L1479.59 283.451L1544.19 368.033C1548.41 373.583 1553.07 379.133 1558.18 384.683C1563.51 390.233 1567.72 394.34 1570.83 397.004V401H1504.23L1434.64 305.429Z" fill="#1D1D1D"/>
<path d="M1201.06 309.425C1201.06 287.225 1205.62 269.132 1214.72 255.146C1223.82 240.938 1236.25 230.504 1252.01 223.844C1268 217.184 1286.2 213.854 1306.63 213.854C1322.17 213.854 1335.6 215.852 1346.92 219.848V266.468H1343.26C1339.48 264.692 1335.15 263.249 1330.27 262.139C1325.38 260.807 1319.61 260.141 1312.95 260.141C1296.3 260.141 1283.43 264.359 1274.32 272.795C1265.22 281.009 1260.67 293.219 1260.67 309.425C1260.67 325.409 1265.22 337.619 1274.32 346.055C1283.43 354.269 1296.3 358.376 1312.95 358.376C1319.61 358.376 1325.38 357.821 1330.27 356.711C1335.15 355.379 1339.48 353.936 1343.26 352.382H1346.92V398.669C1335.6 402.665 1322.17 404.663 1306.63 404.663C1285.76 404.663 1267.33 401.333 1251.35 394.673C1235.59 388.013 1223.26 377.69 1214.38 363.704C1205.5 349.496 1201.06 331.403 1201.06 309.425Z" fill="#1D1D1D"/>
<path d="M1133.38 192.542C1124.28 192.542 1116.85 189.989 1111.07 184.883C1105.3 179.555 1102.42 172.007 1102.42 162.239C1102.42 152.471 1105.3 145.034 1111.07 139.928C1116.85 134.6 1124.28 131.936 1133.38 131.936C1142.71 131.936 1150.26 134.6 1156.03 139.928C1161.8 145.034 1164.69 152.471 1164.69 162.239C1164.69 172.007 1161.8 179.555 1156.03 184.883C1150.26 189.989 1142.71 192.542 1133.38 192.542ZM1104.08 401V274.46C1104.08 270.02 1103.97 264.359 1103.75 257.477C1103.75 250.595 1103.41 243.935 1102.75 237.497C1102.3 230.837 1101.64 225.509 1100.75 221.513L1101.75 218.849H1162.69V401H1104.08Z" fill="#1D1D1D"/>
<path d="M879.046 401V288.446C879.046 284.006 878.935 278.345 878.713 271.463C878.713 264.359 878.38 257.477 877.714 250.817C877.27 243.935 876.604 238.496 875.716 234.5L876.715 231.836C884.041 228.728 892.366 225.842 901.69 223.178C911.236 220.514 921.226 218.294 931.66 216.518C942.316 214.742 952.861 213.854 963.295 213.854C974.839 213.854 986.05 215.075 996.928 217.517C1007.81 219.959 1017.57 224.288 1026.23 230.504C1035.11 236.498 1042.1 244.934 1047.21 255.812C1052.32 266.69 1054.87 280.454 1054.87 297.104V401H996.262V299.102C996.262 288.668 994.708 280.676 991.6 275.126C988.492 269.576 984.052 265.691 978.28 263.471C972.73 261.251 966.292 260.141 958.966 260.141C952.528 260.141 946.423 260.918 940.651 262.472C934.879 264.026 929.662 265.58 925 267.134L933.325 254.147C934.879 257.477 935.989 261.917 936.655 267.467C937.321 272.795 937.654 279.566 937.654 287.78V401H879.046Z" fill="#1D1D1D"/>
<path d="M744.904 404.996C733.36 404.996 722.038 403.775 710.938 401.333C699.838 398.891 689.848 394.673 680.968 388.679C672.31 382.463 665.428 374.027 660.322 363.371C655.216 352.493 652.663 338.618 652.663 321.746V274.46C652.663 270.02 652.552 264.359 652.33 257.477C652.108 250.595 651.775 243.935 651.331 237.497C650.887 230.837 650.11 225.509 649 221.513L650.332 218.849H711.271V320.081C711.271 330.293 712.825 338.285 715.933 344.057C719.263 349.607 723.703 353.492 729.253 355.712C735.025 357.71 741.796 358.709 749.566 358.709C755.782 358.709 761.665 358.043 767.215 356.711C772.765 355.157 777.76 353.714 782.2 352.382L774.208 365.036C772.654 361.706 771.544 357.377 770.878 352.049C770.212 346.721 769.879 340.061 769.879 332.069V274.46C769.879 270.02 769.768 264.359 769.546 257.477C769.324 250.595 768.88 243.935 768.214 237.497C767.77 230.837 767.104 225.509 766.216 221.513L767.215 218.849H828.487V331.07C828.487 335.51 828.487 341.282 828.487 348.386C828.709 355.268 829.042 362.039 829.486 368.699C830.152 375.359 830.929 380.687 831.817 384.683L830.818 387.347C823.492 390.455 815.056 393.341 805.51 396.005C796.186 398.669 786.307 400.778 775.873 402.332C765.661 404.108 755.338 404.996 744.904 404.996Z" fill="#1D1D1D"/>
<path d="M1123.05 122.629C1128.83 116.851 1138.2 116.851 1143.97 122.629L1171.21 149.865C1176.99 155.643 1176.99 165.011 1171.21 170.788L1143.97 198.025C1138.2 203.803 1128.83 203.803 1123.05 198.025L1095.81 170.788C1090.04 165.011 1090.04 155.643 1095.81 149.865L1123.05 122.629Z" fill="#FF7800"/>
</svg>
